{"accessors":{"accessor_16":{"bufferView":"bufferView_1","byteOffset":0,"byteStride":0,"componentType":5123,"count":36,"max":[17],"min":[0],"type":"SCALAR"},"accessor_18":{"bufferView":"bufferView_0","byteOffset":0,"byteStride":0,"componentType":5126,"count":36,"max":[0.24626900255680084,1.663849949836731,0],"min":[0,1.4816399812698364,-0.2462729960680008],"type":"VEC3"},"accessor_20":{"bufferView":"bufferView_0","byteOffset":432,"byteStride":0,"componentType":5126,"count":36,"max":[0.7256498336791992,0.9296483397483826,0.6880069375038147],"min":[-0.6880238652229309,-0.9618372917175293,-0.7256328463554382],"type":"VEC3"}},"animations":{},"asset":{"generator":"collada2gltf@ec3ff192cc7dd54ad5f27c08bf14e37805754a10","premultipliedAlpha":true,"profile":{"api":"WebGL","version":"1.0.2"},"version":"1.0.1"},"bufferViews":{"bufferView_0":{"buffer":"input","byteLength":864,"byteOffset":0,"target":34962},"bufferView_1":{"buffer":"input","byteLength":72,"byteOffset":864,"target":34963}},"buffers":{"input":{"type":"arraybuffer","byteLength":936,"uri":"data:application/octet-stream;base64,"}},"cameras":{"Camera-camera":{"name":"Camera","perspective":{"aspectRatio":1.7777799367904663,"yfov":0.48237427870788735,"zfar":100,"znear":0.10000000149011612},"type":"perspective"}},"materials":{"effect-ID1":{"name":"material-ID2","technique":"technique0","values":{"diffuse":[1,1,1,1]}}},"meshes":{"ICON_MIGHTI_ASM_FOV-mesh":{"name":"ICON","primitives":[{"attributes":{"NORMAL":"accessor_20","POSITION":"accessor_18"},"indices":"accessor_16","material":"effect-ID1","mode":4}]}},"nodes":{"Camera":{"camera":"Camera-camera","children":[],"matrix":[0.6859210133552551,0.7276759743690491,0,0,-0.32401400804519653,0.30542099475860596,0.8953959941864014,0,0.651557981967926,-0.6141699552536011,0.44527098536491394,0,7.4811296463012695,-6.5076398849487305,5.3436598777771,1],"name":"Camera"},"Lamp":{"children":[],"matrix":[-0.2908650040626526,0.9551709890365601,-0.055189099162817,0,-0.7711009979248047,-0.19988299906253815,0.6045249700546265,0,0.5663930177688599,0.21839100122451782,0.7946720123291016,0,4.076250076293945,1.0054500102996826,5.903859615325928,1],"name":"Lamp"},"node_3":{"children":["Lamp","Camera"],"matrix":[1,0,0,0,0,0,-1,0,0,1,0,0,0,0,0,1],"name":"Y_UP_Transform","meshes":[]},"rootNode":{"children":["node_3"],"meshes":["ICON_MIGHTI_ASM_FOV-mesh"],"matrix":[1,0,0,0,0,1,0,0,0,0,1,0,0,0,0,1]}},"programs":{"program_0":{"attributes":["a_normal","a_position"],"fragmentShader":"input0FS","vertexShader":"input0VS"}},"scene":"defaultScene","scenes":{"defaultScene":{"nodes":["rootNode"]}},"shaders":{"input0FS":{"type":35632,"uri":"data:text/plain;base64,"},"input0VS":{"type":35633,"uri":"data:text/plain;base64,"}},"skins":{},"techniques":{"technique0":{"attributes":{"a_normal":"normal","a_position":"position"},"parameters":{"diffuse":{"semantic":"_3DTILESDIFFUSE","type":35666},"light0Color":{"type":35665,"value":[1,1,1]},"light0ConstantAttenuation":{"type":5126,"value":1},"light0LinearAttenuation":{"type":5126,"value":0},"light0QuadraticAttenuation":{"type":5126,"value":0.001111089950427413},"light0Transform":{"node":"Lamp","semantic":"MODELVIEW","type":35676},"modelViewMatrix":{"semantic":"MODELVIEW","type":35676},"normal":{"semantic":"NORMAL","type":35665},"normalMatrix":{"semantic":"MODELVIEWINVERSETRANSPOSE","type":35675},"position":{"semantic":"POSITION","type":35665},"projectionMatrix":{"semantic":"PROJECTION","type":35676}},"program":"program_0","states":{"enable":[2929,2884]},"uniforms":{"u_diffuse":"diffuse","u_light0Color":"light0Color","u_light0ConstantAttenuation":"light0ConstantAttenuation","u_light0LinearAttenuation":"light0LinearAttenuation","u_light0QuadraticAttenuation":"light0QuadraticAttenuation","u_light0Transform":"light0Transform","u_modelViewMatrix":"modelViewMatrix","u_normalMatrix":"normalMatrix","u_projectionMatrix":"projectionMatrix"}}},"images":{},"samplers":{},"textures":{},"extensionsUsed":[]}
