{
    "asset": {
        "generator": "COLLADA2GLTF",
        "version": "2.0"
    },
    "scenes": [
        {
            "nodes": [
                0
            ]
        }
    ],
    "scene": 0,
    "nodes": [
        {
            "children": [
                1
            ],
            "matrix": [
                1.0,
                0.0,
                0.0,
                0.0,
                0.0,
                0.0,
                -1.0,
                0.0,
                0.0,
                1.0,
                0.0,
                0.0,
                0.0,
                0.0,
                0.0,
                1.0
            ],
            "name": "Z_UP"
        },
        {
            "mesh": 0,
            "name": "FUV_FOV"
        }
    ],
    "meshes": [
        {
            "primitives": [
                {
                    "attributes": {
                        "NORMAL": 1,
                        "POSITION": 2
                    },
                    "indices": 0,
                    "mode": 4
                }
            ],
            "name": "FUV FOV"
        }
    ],
    "accessors": [
        {
            "bufferView": 0,
            "byteOffset": 0,
            "componentType": 5123,
            "count": 1728,
            "max": [
                1690
            ],
            "min": [
                0
            ],
            "type": "SCALAR"
        },
        {
            "bufferView": 1,
            "byteOffset": 0,
            "componentType": 5126,
            "count": 1691,
            "max": [
                0.9397093057632446,
                0.9866732358932496,
                0.9940112233161926
            ],
            "min": [
                -0.5735805034637451,
                -0.9866493344306946,
                -0.8395987153053284
            ],
            "type": "VEC3"
        },
        {
            "bufferView": 1,
            "byteOffset": 20292,
            "componentType": 5126,
            "count": 1691,
            "max": [
                0.2657616138458252,
                0.14300699532032014,
                0.20113329589366914
            ],
            "min": [
                0.0000663957980577834,
                0.000007048250154184643,
                0.00003479330189293251
            ],
            "type": "VEC3"
        }
    ],
    "bufferViews": [
        {
            "buffer": 0,
            "byteOffset": 40584,
            "byteLength": 3456,
            "target": 34963
        },
        {
            "buffer": 0,
            "byteOffset": 0,
            "byteLength": 40584,
            "byteStride": 12,
            "target": 34962
        }
    ],
    "buffers": [
        {
            "byteLength": 44040,
            "uri": "data:application/octet-stream;base64,"
        }
    ]
}
